<svg data-v-423bf9ae="" xmlns="http://www.w3.org/2000/svg" viewBox="0 0 1752.2559570312499 1836" class="iconAbove"><!----><!----><!----><g data-v-423bf9ae="" id="baa8a3b3-6357-4f39-8502-39e74fe2f3c0" fill="#ffffff" transform="matrix(5.719733238220215,0,0,5.719733238220215,674.0498046875,1733.7567138671875)"><path d="M2.41 17.60L0.01 7.24L1.70 7.24L3.22 14.19L3.28 14.19L4.77 7.24L6.32 7.24L7.78 14.19L7.86 14.19L9.38 7.24L11.02 7.24L8.62 17.60L7.10 17.60L5.58 10.37L5.51 10.37L3.96 17.60L2.41 17.60ZM12.42 13.16L12.42 13.16L12.42 13.16Q12.38 13.52 12.38 13.94L12.38 13.94L12.38 13.94Q12.38 14.36 12.42 14.69L12.42 14.69L12.42 14.69Q12.46 15.03 12.57 15.36L12.57 15.36L12.57 15.36Q12.67 15.70 12.84 15.94L12.84 15.94L12.84 15.94Q13.21 16.49 13.88 16.49L13.88 16.49L13.88 16.49Q15.36 16.49 15.36 13.99L15.36 13.99L15.36 13.99Q15.36 12.53 14.92 11.96L14.92 11.96L14.92 11.96Q14.57 11.50 13.88 11.50L13.88 11.50L13.88 11.50Q12.61 11.50 12.42 13.16ZM10.92 13.99L10.92 13.99L10.92 13.99Q10.92 12.28 11.71 11.27L11.71 11.27L11.71 11.27Q12.50 10.26 13.88 10.26L13.88 10.26L13.88 10.26Q14.79 10.26 15.46 10.73L15.46 10.73L15.46 10.73Q16.82 11.68 16.82 13.99L16.82 13.99L16.82 13.99Q16.82 16.88 15.02 17.54L15.02 17.54L15.02 17.54Q14.52 17.73 13.88 17.73L13.88 17.73L13.88 17.73Q13.24 17.73 12.74 17.54L12.74 17.54L12.74 17.54Q12.23 17.36 11.89 17.03L11.89 17.03L11.89 17.03Q11.56 16.70 11.33 16.22L11.33 16.22L11.33 16.22Q10.92 15.33 10.92 13.99ZM19.44 17.60L17.98 17.60L17.98 10.38L19.44 10.38L19.44 11.38L19.44 11.38Q19.47 11.34 19.56 11.20L19.56 11.20L19.73 10.95L19.73 10.95Q20.23 10.26 21.40 10.26L21.40 10.26L21.40 10.26Q21.52 10.26 21.64 10.28L21.64 10.28L21.64 11.50L21.64 11.50Q20.40 11.53 19.85 12.20L19.85 12.20L19.85 12.20Q19.61 12.50 19.44 12.97L19.44 12.97L19.44 17.60ZM23.99 17.62L22.52 17.62L22.52 7.24L23.99 7.24L23.99 17.62ZM29.62 15.65L29.62 12.20L29.62 12.20Q28.94 11.50 28.14 11.50L28.14 11.50L28.14 11.50Q27.31 11.50 26.95 12.22L26.95 12.22L26.95 12.22Q26.63 12.84 26.63 14.10L26.63 14.10L26.63 14.10Q26.63 15.49 27.08 16.02L27.08 16.02L27.08 16.02Q27.46 16.48 28.21 16.48L28.21 16.48L28.21 16.48Q29.00 16.48 29.52 15.78L29.52 15.78L29.52 15.78Q29.61 15.65 29.62 15.65L29.62 15.65ZM31.08 7.24L31.08 16.62L31.08 16.62Q31.08 17.10 31.27 17.60L31.27 17.60L29.73 17.60L29.73 17.60Q29.71 17.56 29.69 17.50L29.69 17.50L29.62 17.06L29.62 17.06Q29.10 17.72 28.10 17.72L28.10 17.72L28.10 17.72Q26.38 17.72 25.60 16.13L25.60 16.13L25.60 16.13Q25.16 15.24 25.16 14.12L25.16 14.12L25.16 14.12Q25.16 11.52 26.45 10.70L26.45 10.70L26.45 10.70Q27.13 10.26 28.20 10.26L28.20 10.26L28.20 10.26Q28.72 10.26 29.11 10.47L29.11 10.47L29.11 10.47Q29.50 10.68 29.62 10.86L29.62 10.86L29.62 7.24L31.08 7.24ZM34.02 8.61L34.02 11.72L35.75 11.72L35.75 11.72Q36.47 11.72 36.95 11.33L36.95 11.33L36.95 11.33Q37.45 10.92 37.45 10.06L37.45 10.06L37.45 10.06Q37.45 8.61 35.16 8.61L35.16 8.61L34.02 8.61ZM34.02 17.60L32.39 17.60L32.39 7.24L35.87 7.24L35.87 7.24Q38.27 7.24 38.90 8.96L38.90 8.96L38.90 8.96Q39.09 9.45 39.09 9.99L39.09 9.99L39.09 9.99Q39.09 10.52 38.97 10.96L38.97 10.96L38.97 10.96Q38.85 11.40 38.62 11.77L38.62 11.77L38.62 11.77Q38.10 12.59 37.11 12.80L37.11 12.80L39.02 17.60L37.34 17.60L35.55 13.10L34.02 13.10L34.02 17.60ZM40.88 13.14L40.88 13.14L43.41 13.14L43.41 13.14Q43.41 12.61 43.22 12.22L43.22 12.22L43.22 12.22Q42.87 11.50 42.24 11.50L42.24 11.50L42.24 11.50Q41.86 11.50 41.58 11.67L41.58 11.67L41.58 11.67Q41.30 11.83 41.15 12.10L41.15 12.10L41.15 12.10Q40.88 12.60 40.88 13.14ZM39.73 16.20L39.73 16.20L39.73 16.20Q39.52 15.73 39.43 15.23L39.43 15.23L39.43 15.23Q39.35 14.74 39.35 13.98L39.35 13.98L39.35 13.98Q39.35 13.23 39.53 12.52L39.53 12.52L39.53 12.52Q39.70 11.81 39.98 11.39L39.98 11.39L39.98 11.39Q40.26 10.96 40.66 10.71L40.66 10.71L40.66 10.71Q41.34 10.26 42.25 10.26L42.25 10.26L42.25 10.26Q43.11 10.26 43.76 10.77L43.76 10.77L43.76 10.77Q44.96 11.74 44.91 14.38L44.91 14.38L40.81 14.38L40.81 14.38Q40.81 15.76 41.54 16.24L41.54 16.24L41.54 16.24Q41.92 16.48 42.33 16.48L42.33 16.48L42.33 16.48Q42.75 16.48 43.02 16.38L43.02 16.38L43.02 16.38Q43.29 16.28 43.46 16.15L43.46 16.15L43.46 16.15Q43.62 16.02 43.76 15.85L43.76 15.85L43.76 15.85Q43.94 15.61 44.01 15.44L44.01 15.44L44.94 16.04L44.94 16.04Q44.43 16.92 43.86 17.29L43.86 17.29L43.86 17.29Q43.22 17.72 42.46 17.72L42.46 17.72L42.46 17.72Q41.70 17.72 41.16 17.52L41.16 17.52L41.16 17.52Q40.63 17.32 40.29 16.99L40.29 16.99L40.29 16.99Q39.95 16.67 39.73 16.20ZM45.80 16.15L45.80 16.15L46.81 15.53L46.81 15.53Q47.05 15.87 47.26 16.08L47.26 16.08L47.26 16.08Q47.74 16.56 48.48 16.56L48.48 16.56L48.48 16.56Q49.08 16.56 49.33 16.31L49.33 16.31L49.33 16.31Q49.56 16.08 49.56 15.63L49.56 15.63L49.56 15.63Q49.56 15.11 49.23 14.85L49.23 14.85L49.23 14.85Q48.92 14.62 48.63 14.54L48.63 14.54L47.99 14.36L47.99 14.36Q46.87 14.04 46.38 13.51L46.38 13.51L46.38 13.51Q45.88 12.97 45.88 12.08L45.88 12.08L45.88 12.08Q45.88 11.32 46.50 10.81L46.50 10.81L46.50 10.81Q47.16 10.26 48.38 10.26L48.38 10.26L48.38 10.26Q49.49 10.26 50.28 11.01L50.28 11.01L50.28 11.01Q50.62 11.33 50.71 11.55L50.71 11.55L49.86 12.22L49.86 12.22Q49.38 11.64 48.90 11.50L48.90 11.50L48.90 11.50Q48.66 11.43 48.26 11.43L48.26 11.43L48.26 11.43Q47.86 11.43 47.57 11.63L47.57 11.63L47.57 11.63Q47.29 11.84 47.29 12.24L47.29 12.24L47.29 12.24Q47.29 12.69 47.69 12.95L47.69 12.95L47.69 12.95Q48.05 13.17 48.41 13.28L48.41 13.28L49.03 13.45L49.03 13.45Q50.48 13.86 50.83 14.84L50.83 14.84L50.83 14.84Q50.97 15.24 50.97 15.78L50.97 15.78L50.97 15.78Q50.97 16.32 50.63 16.78L50.63 16.78L50.63 16.78Q50.29 17.23 49.74 17.47L49.74 17.47L49.74 17.47Q49.18 17.72 48.62 17.72L48.62 17.72L48.62 17.72Q48.06 17.72 47.69 17.65L47.69 17.65L47.69 17.65Q47.33 17.58 46.98 17.41L46.98 17.41L46.98 17.41Q46.32 17.08 45.80 16.15ZM51.83 14.04L51.83 14.04L51.83 14.04Q51.83 11.89 52.77 10.99L52.77 10.99L52.77 10.99Q53.50 10.26 54.83 10.26L54.83 10.26L54.83 10.26Q56.16 10.26 56.92 11.38L56.92 11.38L56.92 11.38Q57.16 11.74 57.26 12.06L57.26 12.06L56.02 12.61L56.02 12.61Q55.97 12.04 55.56 11.72L55.56 11.72L55.56 11.72Q55.29 11.50 54.89 11.50L54.89 11.50L54.89 11.50Q53.29 11.50 53.29 13.98L53.29 13.98L53.29 13.98Q53.29 15.20 53.71 15.84L53.71 15.84L53.71 15.84Q54.13 16.48 54.93 16.48L54.93 16.48L54.93 16.48Q55.49 16.48 55.84 16.07L55.84 16.07L55.84 16.07Q56.14 15.72 56.27 15.31L56.27 15.31L57.39 15.80L57.39 15.80Q57.24 16.41 56.72 16.96L56.72 16.96L56.72 16.96Q56.01 17.72 54.89 17.72L54.89 17.72L54.89 17.72Q51.83 17.72 51.83 14.04ZM58.64 15.79L58.64 15.79L58.64 10.38L60.10 10.38L60.10 15.41L60.10 15.41Q60.10 15.90 60.40 16.19L60.40 16.19L60.40 16.19Q60.70 16.48 61.10 16.48L61.10 16.48L61.10 16.48Q61.51 16.48 61.92 16.24L61.92 16.24L61.92 16.24Q62.32 16.00 62.52 15.76L62.52 15.76L62.52 10.38L63.98 10.38L63.98 17.60L62.52 17.60L62.52 16.83L62.52 16.83Q61.63 17.72 60.68 17.72L60.68 17.72L60.68 17.72Q59.81 17.72 59.25 17.27L59.25 17.27L59.25 17.27Q58.64 16.78 58.64 15.79ZM66.59 13.14L66.59 13.14L69.12 13.14L69.12 13.14Q69.12 12.61 68.93 12.22L68.93 12.22L68.93 12.22Q68.58 11.50 67.95 11.50L67.95 11.50L67.95 11.50Q67.57 11.50 67.29 11.67L67.29 11.67L67.29 11.67Q67.01 11.83 66.86 12.10L66.86 12.10L66.86 12.10Q66.59 12.60 66.59 13.14ZM65.44 16.20L65.44 16.20L65.44 16.20Q65.23 15.73 65.14 15.23L65.14 15.23L65.14 15.23Q65.06 14.74 65.06 13.98L65.06 13.98L65.06 13.98Q65.06 13.23 65.24 12.52L65.24 12.52L65.24 12.52Q65.41 11.81 65.69 11.39L65.69 11.39L65.69 11.39Q65.97 10.96 66.37 10.71L66.37 10.71L66.37 10.71Q67.05 10.26 67.96 10.26L67.96 10.26L67.96 10.26Q68.82 10.26 69.47 10.77L69.47 10.77L69.47 10.77Q70.67 11.74 70.62 14.38L70.62 14.38L66.52 14.38L66.52 14.38Q66.52 15.76 67.25 16.24L67.25 16.24L67.25 16.24Q67.63 16.48 68.04 16.48L68.04 16.48L68.04 16.48Q68.46 16.48 68.73 16.38L68.73 16.38L68.73 16.38Q69.00 16.28 69.17 16.15L69.17 16.15L69.17 16.15Q69.33 16.02 69.47 15.85L69.47 15.85L69.47 15.85Q69.65 15.61 69.72 15.44L69.72 15.44L70.65 16.04L70.65 16.04Q70.14 16.92 69.57 17.29L69.57 17.29L69.57 17.29Q68.93 17.72 68.17 17.72L68.17 17.72L68.17 17.72Q67.41 17.72 66.87 17.52L66.87 17.52L66.87 17.52Q66.34 17.32 66.00 16.99L66.00 16.99L66.00 16.99Q65.66 16.67 65.44 16.20Z"></path></g><!----><g data-v-423bf9ae="" id="969a5740-af5d-4fc2-82a0-06a20afd78a9" transform="matrix(4.424888610839844,0,0,4.424888610839844,-255.771484375,-258.09722900390625)" stroke="none" fill="#D8B836"><path d="M256 58.4L58 149.15v213.646l198 93.844 198-93.844V149.15L256 58.4zm186 170.695l-50 22.136v-21.939l-80 35.333v22.024l-50 22.134v-66.877l180-79.688v66.877zm-62 18.614v32.849l-56 24.733v-32.849l56-24.733zM70 162.218l180 79.688v66.877L70 229.095v-66.877zm363.393-9.313L256 231.438 78.607 152.905 256 71.6l177.393 81.305zM70 242.218l180 79.688v118.611L70 355.204V242.218zm192 198.299V321.905l50-22.135v23.938l80-35.333v-24.022l50-22.136v112.986l-180 85.314z"></path></g><!----></svg>